<svg width="338" height="335" xmlns="http://www.w3.org/2000/svg" xmlns:xlink="http://www.w3.org/1999/xlink" overflow="hidden"><defs><clipPath id="clip0"><rect x="3160" y="528" width="338" height="335"/></clipPath></defs><g clip-path="url(#clip0)" transform="translate(-3160 -528)"><path d="M3161 695 3161 695C3161 603.321 3235.32 529 3327 529L3327 529C3371.03 529 3413.25 546.489 3444.38 577.62 3475.51 608.752 3493 650.974 3493 695L3493 695C3493 786.681 3418.68 861 3327 861L3327 861C3235.32 861 3161 786.681 3161 695Z" fill="#005EB8" fill-rule="evenodd"/><path d="M3161.5 695.5 3161.5 695.5C3161.5 603.821 3235.82 529.5 3327.5 529.5L3327.5 529.5C3371.53 529.5 3413.75 546.989 3444.88 578.12 3476.01 609.251 3493.5 651.474 3493.5 695.5L3493.5 695.5C3493.5 787.181 3419.18 861.5 3327.5 861.5L3327.5 861.5C3235.82 861.5 3161.5 787.181 3161.5 695.5Z" stroke="#FFFFFF" stroke-width="3.4375" stroke-linejoin="round" stroke-miterlimit="10" fill="none" fill-rule="evenodd"/><path d="M3429 695 3493 695" stroke="#FFFFFF" stroke-width="10.3125" stroke-linejoin="round" stroke-miterlimit="10" fill="none" fill-rule="evenodd"/><path d="M3429 712 3395 712 3395 678 3429 678 3429 712Z" stroke="#FFFFFF" stroke-width="10.3125" stroke-miterlimit="8" fill="#FFFFFF" fill-rule="evenodd"/><path d="M3161 533 3493 533 3493 626 3161 626Z" fill="#000000" fill-rule="evenodd" fill-opacity="0"/><path d="M3161 764 3493 764 3493 858 3161 858Z" fill="#000000" fill-rule="evenodd" fill-opacity="0"/><path d="M3250 695 3250 695C3250 652.474 3284.48 618 3327 618L3327 618C3347.42 618 3367.01 626.112 3381.45 640.553 3395.89 654.993 3404 674.579 3404 695L3404 695C3404 737.526 3369.53 772 3327 772L3327 772C3284.48 772 3250 737.526 3250 695Z" fill="#101322" fill-rule="evenodd"/><path d="M3250.5 695.5 3250.5 695.5C3250.5 652.974 3284.98 618.5 3327.5 618.5L3327.5 618.5C3347.92 618.5 3367.51 626.612 3381.95 641.053 3396.39 655.493 3404.5 675.078 3404.5 695.5L3404.5 695.5C3404.5 738.026 3370.03 772.5 3327.5 772.5L3327.5 772.5C3284.98 772.5 3250.5 738.026 3250.5 695.5Z" stroke="#FFFFFF" stroke-width="6.875" stroke-linejoin="round" stroke-miterlimit="10" fill="none" fill-rule="evenodd"/><path d="M3263 695.5 3263 695.5C3263 660.43 3291.43 632 3326.5 632L3326.5 632C3343.34 632 3359.49 638.69 3371.4 650.599 3383.31 662.508 3390 678.659 3390 695.5L3390 695.5C3390 730.57 3361.57 759 3326.5 759L3326.5 759C3291.43 759 3263 730.57 3263 695.5Z" fill="#FFFFFF" fill-rule="evenodd"/><path d="M3263 695.5 3263 695.5C3263 660.43 3291.43 632 3326.5 632L3326.5 632C3343.34 632 3359.49 638.69 3371.4 650.599 3383.31 662.508 3390 678.659 3390 695.5L3390 695.5C3390 730.57 3361.57 759 3326.5 759L3326.5 759C3291.43 759 3263 730.57 3263 695.5Z" stroke="#C3260C" stroke-width="10.3125" stroke-linejoin="round" stroke-miterlimit="10" fill="none" fill-rule="evenodd"/><path d="M3273 695 3273 695C3273 665.177 3297.18 641 3327 641L3327 641C3341.32 641 3355.06 646.69 3365.18 656.816 3375.31 666.944 3381 680.679 3381 695L3381 695C3381 724.823 3356.82 749 3327 749L3327 749C3297.18 749 3273 724.823 3273 695Z" fill="#000000" fill-rule="evenodd" fill-opacity="0"/><path d="M3273 695 3273 695C3273 665.177 3297.18 641 3327 641L3327 641C3341.32 641 3355.06 646.69 3365.18 656.816 3375.31 666.944 3381 680.679 3381 695L3381 695C3381 724.823 3356.82 749 3327 749L3327 749C3297.18 749 3273 724.823 3273 695Z" stroke="#DD7E6B" stroke-width="13.75" stroke-linejoin="round" stroke-miterlimit="10" fill="none" fill-rule="evenodd"/><path d="M3289 695.5 3289 695.5C3289 674.789 3305.79 658 3326.5 658L3326.5 658C3336.45 658 3345.98 661.951 3353.02 668.983 3360.05 676.016 3364 685.554 3364 695.5L3364 695.5C3364 716.211 3347.21 733 3326.5 733L3326.5 733C3305.79 733 3289 716.211 3289 695.5Z" fill="#000000" fill-rule="evenodd" fill-opacity="0"/><path d="M3289 695.5 3289 695.5C3289 674.789 3305.79 658 3326.5 658L3326.5 658C3336.45 658 3345.98 661.951 3353.02 668.983 3360.05 676.016 3364 685.554 3364 695.5L3364 695.5C3364 716.211 3347.21 733 3326.5 733L3326.5 733C3305.79 733 3289 716.211 3289 695.5Z" stroke="#E6B8AF" stroke-width="27.5" stroke-linejoin="round" stroke-miterlimit="10" fill="none" fill-rule="evenodd"/><path d="M3289 695.5 3289 695.5C3289 674.789 3305.79 658 3326.5 658L3326.5 658C3336.45 658 3345.98 661.951 3353.02 668.983 3360.05 676.016 3364 685.554 3364 695.5L3364 695.5C3364 716.211 3347.21 733 3326.5 733L3326.5 733C3305.79 733 3289 716.211 3289 695.5Z" fill="#FFFFFF" fill-rule="evenodd"/><path d="M3405.85 667 3405.85 667C3412.81 685.416 3412.71 705.651 3405.57 724L3327 695.129Z" fill="#000000" fill-rule="evenodd" fill-opacity="0"/><path d="M3405.32 667 3405.32 667C3413 685.416 3412.89 705.651 3405 724" fill="#000000" fill-rule="evenodd" fill-opacity="0"/><path d="M3405.82 667.5 3405.82 667.5C3413.5 685.916 3413.39 706.151 3405.5 724.5" stroke="#005EB8" stroke-width="6.875" stroke-linejoin="round" stroke-miterlimit="10" fill="none" fill-rule="evenodd"/></g></svg>