<svg width="950" height="203" xmlns="http://www.w3.org/2000/svg" xmlns:xlink="http://www.w3.org/1999/xlink" overflow="hidden">
    <defs>
      <clipPath id="clip0">
        <rect x="0" y="151" width="950" height="203"/>
      </clipPath>
    </defs>
    <g clip-path="url(#clip0)" transform="translate(0 -151)">
      <path d="M402.991 248.939 402.991 248.939C402.275 229.976 394.009 212.156 379.103 198.746 363.831 184.69 343.357 177.005 321.44 177.005 277.434 177.005 241.327 209.049 240.067 248.939L240.067 248.939C240.067 266.431 232.522 283.11 218.871 295.534 205.043 307.958 186.895 314.825 167.498 314.825 148.096 314.825 129.954 307.958 116.303 295.534 102.652 283.11 95.1072 266.431 95.1072 248.939L94.9295 248.939C94.391 229.976 85.9473 212.156 71.2138 198.746 55.7695 184.69 35.2903 177.005 13.5563 177.005-31.3549 177.005-67.9947 210.191-67.9947 251.066L-59.0178 251.066C-59.0178 214.768-26.503 185.18 13.5563 185.18 32.9532 185.18 51.0953 192.047 64.7518 204.471 78.5805 216.895 86.125 233.569 86.125 251.066L86.125 251.066 86.125 251.066C86.6635 270.029 95.1072 287.849 109.835 301.254 125.285 315.315 145.764 323 167.498 323 189.232 323 209.711 315.315 225.161 301.254 239.889 287.849 248.333 270.029 248.871 251.066L249.049 251.066C249.049 214.768 281.564 185.18 321.44 185.18 340.842 185.18 358.985 192.047 372.813 204.471 386.464 216.895 394.009 233.569 394.009 251.066L394.009 251.066 394.009 251.066C394.73 270.029 402.991 287.849 417.902 301.254 433.352 315.315 453.826 323 475.565 323 497.299 323 517.773 315.315 533.045 301.254 547.951 287.849 556.394 270.029 556.933 251.066L556.933 251.066C556.933 214.768 589.448 185.18 629.507 185.18 648.904 185.18 667.046 192.047 680.697 204.471 694.531 216.895 702.076 233.569 702.076 251.066L702.076 251.066 702.076 251.066C702.614 270.029 711.058 287.849 725.786 301.254 741.236 315.315 761.715 323 783.449 323 805.183 323 825.662 315.315 841.106 301.254 856.556 287.359 865 268.72 865 248.939L856.018 248.939C856.018 266.431 848.473 283.11 834.822 295.534 820.988 307.958 802.846 314.825 783.449 314.825 764.047 314.825 745.905 307.958 732.253 295.534 718.602 283.11 711.058 266.431 711.058 248.939L710.875 248.939C710.336 229.976 701.898 212.156 687.165 198.746 671.72 184.69 651.241 177.005 629.507 177.005 585.317 177.005 549.389 209.049 548.134 248.939L547.951 248.939C547.951 266.431 540.406 283.11 526.755 295.534 513.104 307.958 494.784 314.825 475.565 314.825 456.163 314.825 438.021 307.958 424.187 295.534 410.535 283.11 402.991 266.431 402.991 248.939Z" fill="#ff6700" fill-rule="evenodd"/>
      <path d="M289 181C289 164.431 302.208 151 318.5 151 334.792 151 348 164.431 348 181 348 197.569 334.792 211 318.5 211 302.208 211 289 197.569 289 181Z" fill="#ff6700" fill-rule="evenodd"/>
      
      <text fill="#FFFFFF" font-family="Bahnschrift" font-weight="700" font-size="32" transform="translate(308.497 192)">
        6
      </text>
      <path d="M753 314C753 297.431 766.431 284 783 284 799.569 284 813 297.431 813 314 813 330.569 799.569 344 783 344 766.431 344 753 330.569 753 314Z" fill="#ff6700" fill-rule="evenodd"/>
      <text fill="#FFFFFF" font-family="Bahnschrift" font-weight="700" font-size="32" transform="translate(767 325)">
        24
      </text>
      <path d="M135 314.5C135 298.208 148.431 285 165 285 181.569 285 195 298.208 195 314.5 195 330.792 181.569 344 165 344 148.431 344 135 330.792 135 314.5Z" fill="#ff6700" fill-rule="evenodd"/>
      <text fill="#FFFFFF" font-family="Bahnschrift" font-weight="700" font-size="32" transform="translate(155.345 325)">
        3
      </text>
      <path d="M445 314.5C445 298.208 458.208 285 474.5 285 490.792 285 504 298.208 504 314.5 504 330.792 490.792 344 474.5 344 458.208 344 445 330.792 445 314.5Z" fill="#ff6700" fill-rule="evenodd"/>
      <text fill="#FFFFFF" font-family="Bahnschrift" font-weight="700" font-size="32" transform="translate(458.867 325)">
        12
      </text>
      <path d="M600 181C600 164.431 613.208 151 629.5 151 645.792 151 659 164.431 659 181 659 197.569 645.792 211 629.5 211 613.208 211 600 197.569 600 181Z" fill="#ff6700" fill-rule="evenodd"/>
      <text fill="#FFFFFF" font-family="Bahnschrift" font-weight="700" font-size="32" transform="translate(615 192)">
        18
      </text>
      <path d="M4.5-1.20689e-05 4.50004 16.6454-4.49996 16.6454-4.5 1.20689e-05ZM13.5 12.1454 0.000104987 39.1454-13.5 12.1454Z" fill="#ff6700" transform="matrix(1 0 0 -1 860.75 249.645)"/>
    </g>
</svg>